<?xml version="1.0" encoding="utf-8"?>
<!-- Generator: Adobe Illustrator 24.0.2, SVG Export Plug-In . SVG Version: 6.00 Build 0)  -->
<svg version="1.1" id="Capa_1" xmlns="http://www.w3.org/2000/svg" xmlns:xlink="http://www.w3.org/1999/xlink" x="0px" y="0px"
	 viewBox="0 0 244 108.2" style="enable-background:new 0 0 244 108.2;" xml:space="preserve">
<style type="text/css">
	.st0{fill:#FFFFFF;}
</style>
<g>
	<g>
		<g>
			<g>
				<path class="st0" d="M146.5,4.5c-4,0-4.1,2.5-4.1,2.5s0.7-1,2-1c0.8,0,3.6,0.8,3.7,3.1c0.2,3.8-4.9,4.2-4.9,4.2
					c-7.4,0-6.3-5.4-12.8-11.3c-5.2-4.8-9,0.1-9,2.3c0,1.2,0.3,3.7,0.8,4.8c2.7,6.2,12.5,9,16.7,9c6.5,0,12.9-3.1,12.9-8.6
					C151.7,7.7,150.1,4.5,146.5,4.5z"/>
			</g>
			<g>
				<path class="st0" d="M97.5,4.5c4,0,4.1,2.5,4.1,2.5s-0.7-1-2-1c-0.8,0-3.6,0.8-3.7,3.1c-0.2,3.8,4.9,4.2,4.9,4.2
					c7.4,0,6.3-5.4,12.8-11.3c5.2-4.8,9,0.1,9,2.3c0,1.2-0.3,3.7-0.8,4.8c-2.7,6.2-12.5,9-16.7,9c-6.5,0-12.9-3.1-12.9-8.6
					C92.3,7.7,93.9,4.5,97.5,4.5z"/>
			</g>
		</g>
		<g>
			<path class="st0" d="M71.2,22c1.5,0,3.1,0.6,4.2,1.6c0.2,0.1,0.2,0.3,0,0.5l-1.4,1.5c-0.1,0.1-0.3,0.1-0.5,0
				c-0.7-0.6-1.4-0.8-2.3-0.8c-1.9,0-3.4,1.6-3.4,3.5c0,1.9,1.5,3.5,3.4,3.5c0.5,0,1-0.1,1.5-0.3v-1h-1.1c-0.2,0-0.3-0.1-0.3-0.3
				v-1.7c0-0.2,0.1-0.3,0.3-0.3h3.5c0.2,0,0.3,0.2,0.3,0.3l0,4.7c0,0.1-0.1,0.2-0.1,0.3c0,0-1.8,1.1-4.3,1.1c-3.4,0-6.2-2.7-6.2-6.2
				S67.8,22,71.2,22z"/>
			<path class="st0" d="M78,22.5c0-0.2,0.1-0.3,0.3-0.3h7.2c0.2,0,0.3,0.2,0.3,0.3v1.9c0,0.2-0.1,0.3-0.3,0.3h-4.8v2.1h4
				c0.2,0,0.3,0.2,0.3,0.3V29c0,0.2-0.2,0.3-0.3,0.3h-4v2.3h4.8c0.2,0,0.3,0.2,0.3,0.3v1.9c0,0.2-0.1,0.3-0.3,0.3h-7.2
				c-0.2,0-0.3-0.2-0.3-0.3V22.5z"/>
			<path class="st0" d="M88.2,22.3c0-0.2,0.2-0.3,0.3-0.3h0.4l6.9,6.7h0v-6.2c0-0.2,0.1-0.3,0.3-0.3h2.1c0.2,0,0.3,0.2,0.3,0.3v11.7
				c0,0.2-0.2,0.3-0.3,0.3H98c-0.1,0-0.2-0.1-0.2-0.1l-6.8-6.9h0v6.5c0,0.2-0.1,0.3-0.3,0.3h-2.1c-0.2,0-0.3-0.2-0.3-0.3L88.2,22.3z
				"/>
			<path class="st0" d="M103.2,24.7h-2.5c-0.2,0-0.3-0.2-0.3-0.3v-1.9c0-0.2,0.1-0.3,0.3-0.3h7.7c0.2,0,0.3,0.2,0.3,0.3v1.9
				c0,0.2-0.1,0.3-0.3,0.3h-2.5v9.3c0,0.2-0.2,0.3-0.3,0.3h-2.1c-0.2,0-0.3-0.2-0.3-0.3V24.7z"/>
			<path class="st0" d="M110.4,22.5c0-0.2,0.1-0.3,0.3-0.3h2.1c0.2,0,0.3,0.2,0.3,0.3v9.3h4.1c0.2,0,0.3,0.2,0.3,0.3v1.9
				c0,0.2-0.1,0.3-0.3,0.3h-6.5c-0.2,0-0.3-0.2-0.3-0.3V22.5z"/>
			<path class="st0" d="M119.3,22.5c0-0.2,0.1-0.3,0.3-0.3h7.2c0.2,0,0.3,0.2,0.3,0.3v1.9c0,0.2-0.1,0.3-0.3,0.3H122v2.1h4
				c0.2,0,0.3,0.2,0.3,0.3V29c0,0.2-0.2,0.3-0.3,0.3h-4v2.3h4.8c0.2,0,0.3,0.2,0.3,0.3v1.9c0,0.2-0.1,0.3-0.3,0.3h-7.2
				c-0.2,0-0.3-0.2-0.3-0.3V22.5z"/>
			<path class="st0" d="M130.7,22.2c0-0.2,0.2-0.3,0.3-0.3h0.3c0.1,0,0.2,0.1,0.3,0.2l4,7.5h0l4-7.5c0.1-0.1,0.2-0.2,0.3-0.2h0.3
				c0.1,0,0.3,0.1,0.3,0.3l2,11.7c0,0.2-0.1,0.4-0.3,0.4h-2c-0.2,0-0.3-0.1-0.3-0.3l-0.8-5.4h0l-2.9,5.6c-0.1,0.1-0.2,0.2-0.3,0.2
				h-0.3c-0.1,0-0.2-0.1-0.3-0.2l-2.9-5.6h0l-0.8,5.4c0,0.1-0.2,0.3-0.3,0.3H129c-0.2,0-0.4-0.2-0.3-0.4L130.7,22.2z"/>
			<path class="st0" d="M144.7,22.5c0-0.2,0.1-0.3,0.3-0.3h7.2c0.2,0,0.3,0.2,0.3,0.3v1.9c0,0.2-0.1,0.3-0.3,0.3h-4.8v2.1h4
				c0.2,0,0.3,0.2,0.3,0.3V29c0,0.2-0.2,0.3-0.3,0.3h-4v2.3h4.8c0.2,0,0.3,0.2,0.3,0.3v1.9c0,0.2-0.1,0.3-0.3,0.3H145
				c-0.2,0-0.3-0.2-0.3-0.3V22.5z"/>
			<path class="st0" d="M154.9,22.3c0-0.2,0.2-0.3,0.3-0.3h0.4l6.9,6.7h0v-6.2c0-0.2,0.1-0.3,0.3-0.3h2.1c0.2,0,0.3,0.2,0.3,0.3
				v11.7c0,0.2-0.2,0.3-0.3,0.3h-0.3c-0.1,0-0.2-0.1-0.2-0.1l-6.8-6.9h0v6.5c0,0.2-0.1,0.3-0.3,0.3h-2.1c-0.2,0-0.3-0.2-0.3-0.3
				L154.9,22.3z"/>
			<path class="st0" d="M167.6,26.8c-0.1-0.1-0.1-0.3,0-0.4c0.2-0.1,1.2-0.9,1.2-2.1c0,0-0.3,0.1-0.7,0.1c-0.7,0-1.2-0.5-1.2-1.2
				c0-0.7,0.6-1.2,1.4-1.2c0.7,0,1.6,0.5,1.6,2c0,1.8-1.2,2.8-1.6,3.1c-0.1,0.1-0.2,0.1-0.4,0L167.6,26.8z"/>
			<path class="st0" d="M170.9,32.6l0.8-1.4c0.1-0.2,0.5-0.2,0.6-0.1c0.1,0,1.3,1,2.5,1c0.7,0,1.2-0.4,1.2-1c0-0.7-0.6-1.3-1.8-1.8
				c-1.5-0.6-3.4-1.8-3.4-3.8c0-1.7,1.3-3.4,4-3.4c1.8,0,3.2,0.9,3.7,1.3c0.2,0.1,0.2,0.4,0.1,0.6l-0.9,1.3
				c-0.1,0.2-0.4,0.3-0.6,0.2c-0.2-0.1-1.4-1-2.5-1c-0.6,0-1.1,0.4-1.1,0.9c0,0.6,0.5,1.1,1.9,1.7c1.4,0.5,3.5,1.6,3.5,4
				c0,1.8-1.5,3.6-4.1,3.6c-2.3,0-3.5-0.9-3.9-1.3C170.9,32.9,170.8,32.9,170.9,32.6z"/>
		</g>
		<g>
			<path class="st0" d="M101.1,97.3c-0.3,0.2-0.4,0.5-0.4,0.9c0,0.4,0.2,0.6,0.5,0.8c0.3,0.2,1.1,0.5,2.2,0.7c1.2,0.3,2,0.7,2.7,1.3
				c0.6,0.6,1,1.4,1,2.5c0,1.1-0.4,2-1.2,2.6c-0.8,0.7-1.9,1-3.2,1c-1.9,0-3.6-0.7-5.2-2.1l1.6-2c1.3,1.1,2.5,1.7,3.6,1.7
				c0.5,0,0.9-0.1,1.2-0.3c0.3-0.2,0.4-0.5,0.4-0.9c0-0.4-0.2-0.7-0.5-0.9c-0.3-0.2-0.9-0.4-1.8-0.7c-1.4-0.3-2.4-0.8-3.1-1.3
				c-0.7-0.5-1-1.4-1-2.5c0-1.2,0.4-2,1.2-2.7c0.8-0.6,1.9-0.9,3.1-0.9c0.8,0,1.6,0.1,2.4,0.4c0.8,0.3,1.5,0.7,2.1,1.2l-1.4,2
				c-1.1-0.8-2.1-1.2-3.3-1.2C101.8,97,101.4,97.1,101.1,97.3z"/>
			<path class="st0" d="M116.9,94.9h2.7V107h-2.7v-4.8h-4.8v4.8h-2.7V94.9h2.7v5.1h4.8V94.9z"/>
			<path class="st0" d="M132.8,105.4c-1.2,1.2-2.7,1.8-4.5,1.8c-1.8,0-3.3-0.6-4.5-1.8c-1.2-1.2-1.8-2.7-1.8-4.5
				c0-1.8,0.6-3.3,1.8-4.5c1.2-1.2,2.7-1.8,4.5-1.8c1.8,0,3.3,0.6,4.5,1.8c1.2,1.2,1.8,2.7,1.8,4.5
				C134.6,102.7,134,104.2,132.8,105.4z M131.9,100.9c0-1.1-0.3-2-1-2.8c-0.7-0.8-1.5-1.1-2.6-1.1c-1,0-1.9,0.4-2.6,1.1
				c-0.7,0.8-1,1.7-1,2.8c0,1.1,0.3,2,1,2.8c0.7,0.8,1.5,1.1,2.6,1.1c1,0,1.9-0.4,2.6-1.1C131.5,102.9,131.9,102,131.9,100.9z"/>
			<path class="st0" d="M145.3,96c0.9,0.7,1.3,1.8,1.3,3.3c0,1.5-0.4,2.6-1.3,3.3c-0.9,0.7-2.2,1-4,1h-1.6v3.4h-2.7V94.9h4.3
				C143.1,94.9,144.4,95.3,145.3,96z M143.3,100.8c0.3-0.4,0.5-0.9,0.5-1.6c0-0.7-0.2-1.2-0.6-1.5c-0.4-0.3-1.1-0.4-2-0.4h-1.5v4.1
				h1.8C142.4,101.3,143,101.1,143.3,100.8z"/>
		</g>
		<g>
			<g>
				<path class="st0" d="M22.1,96.3c1.2,0.3,2.6,0.5,4.2,0.5c0.6,0,1.1-0.1,1.5-0.4c0.4-0.3,0.7-0.5,0.9-0.8h62.8v-0.6H28.7
					c-0.2-0.4-0.5-0.6-0.9-0.8c-0.4-0.2-0.9-0.3-1.5-0.3c-1.7,0-3.4,0.2-5.3,0.7c-1.1,0.3-1.9,0.5-2.4,0.6v0.3
					C19.7,95.7,20.9,96,22.1,96.3z M23.2,94.6c1.2-0.2,2.2-0.2,3.1-0.2c0.4,0,0.7,0.1,1,0.2c0.3,0.1,0.6,0.3,0.6,0.6v0.2
					c-0.1,0.2-0.3,0.4-0.7,0.6c-0.4,0.1-0.7,0.2-1,0.2c-2,0-4.1-0.3-6.3-0.9C20.9,95,22,94.8,23.2,94.6z"/>
			</g>
			<g>
				<path class="st0" d="M212.9,97.6c-0.3,0-0.4,0-0.5,0.1c-0.1,0-0.1,0.2-0.1,0.5c0,0.2,0.2,0.4,0.7,0.5c0.5,0.1,0.7,0.3,0.7,0.6
					c0,0.6-0.4,1.1-1.3,1.4c-0.7,0.2-1.6,0.3-2.8,0.3c-1.3,0-3.3-0.3-5.9-0.8c-4.4-1-6.7-1.4-6.8-1.5c-2.8-0.5-5.3-0.8-7.4-0.8
					c-1.4,0-3.3,0.2-5.7,0.5c-2.5,0.3-4.1,0.6-5,0.9c-1.3,0.4-3,1.1-5.2,2.1c-1.7,0.8-3.2,1.6-4.5,2.3c-0.8-0.5-1.4-0.9-1.8-1.1
					c-1.3-0.8-2.3-1.4-3-1.8c1.8,0,3.3-0.1,4.4-0.4c1.8-0.4,2.9-1.2,3.3-2.4l-0.3-0.2c-0.4,0.3-0.6,0.5-0.6,0.5
					c-0.3,0.1-0.8,0.2-1.6,0.2c-1.8-0.3-3.6-0.7-5.4-1c-2-0.3-3.9-0.4-5.9-0.4c-5.1,0-7.6,1.9-7.6,5.5c0,1.5,0.7,2.7,2.1,3.8
					c1.1,0.8,2.5,1.2,4.2,1.2c2,0,4-0.3,6.2-0.9c2.2-0.6,4.2-1.4,6-2.4c1,0.6,2,1.2,3,1.7c2.4,1.4,4.7,2,6.7,2
					c1.4,0,2.4-0.4,3.1-1.2c0.5-0.6,0.7-1.2,0.7-1.9c0-0.4-0.1-0.9-0.4-1.2c-0.3-0.5-0.8-0.7-1.4-0.7c-0.4,0-0.6,0.1-0.8,0.2
					c-0.2,0.1-0.3,0.4-0.3,0.7c0,0.3,0.4,0.5,1.1,0.6c0.7,0.1,1.1,0.5,1.1,1.1c0,0.3-0.2,0.7-0.6,1c-0.6,0.6-1.5,0.8-2.7,0.8
					c-1.1,0-2.5-0.3-4-1c-1.6-0.7-3.2-1.5-4.8-2.6c2.4-1.1,4.9-2.3,7.3-3.4c2.3-0.9,4.3-1.4,5.8-1.4c2,0,3.8,0.3,5.4,0.9
					c2,0.8,3,1.9,3,3.3c0,0.7-0.1,1.2-0.3,1.5c-0.2,0.4-0.6,0.5-1.1,0.5c-0.3,0-0.6-0.1-0.7-0.2l-0.2,0.2c0.1,0.2,0.4,0.4,0.8,0.5
					c0.4,0.1,0.8,0.2,1.3,0.2c1.1,0,2-0.2,2.7-0.7c0.7-0.5,1-1.2,1-2c0-0.4-0.1-0.7-0.1-1.1c-0.1-0.4-0.2-0.7-0.3-0.8l0.1-0.1
					c1.1,0.9,2,1.5,2.8,1.9c1.8,0.9,4,1.3,6.6,1.3c2.2,0,4.5-0.5,6.7-1.5c2.5-1.1,3.8-2.4,3.8-3.8c0-0.5-0.1-0.9-0.4-1.3
					C213.5,97.8,213.2,97.6,212.9,97.6z M164,98.1c3.4,0.7,5.4,1,6.2,1c-0.4,0.4-1.1,0.8-1.9,0.9c-0.8,0.2-1.7,0.3-2.7,0.3
					c-0.5,0-0.9,0-1.4-0.1c-0.5,0-0.9-0.1-1.2-0.1c0.1,0.4,0.2,0.8,0.2,1.1c0,1.4-0.9,2-2.6,2c-0.4,0-0.9-0.1-1.2-0.3
					c-0.4-0.2-0.7-0.5-1-1c1.3,0,1.9-0.5,1.9-1.5c0-0.6-0.3-1.2-0.8-1.7c-0.4-0.4-1-0.8-1.8-1.1C160.2,97.6,162.3,97.8,164,98.1z
					 M162.9,106.3c-2,0.5-4.1,0.8-6.2,0.8c-1.6,0-2.9-0.4-3.9-1.3c-1-0.9-1.5-2-1.5-3.4c0-1.5,0.7-2.6,2-3.5c1-0.7,2.2-1,3.4-1
					c0.7,0,1.4,0.3,2.1,0.8c0.7,0.5,1,1.1,1,1.8c0,0.4-0.2,0.7-0.5,0.8c-0.4,0.1-0.9,0.2-1.5,0.2v0.4c0.3,0.6,0.8,1.1,1.3,1.4
					c0.5,0.3,1.1,0.5,1.6,0.5c1,0,1.8-0.3,2.4-0.8c0.6-0.5,0.9-1.1,0.9-1.9c0.5,0.3,1.5,1,3,1.9c0.7,0.5,1.2,0.8,1.5,0.9
					C166.7,105,164.9,105.8,162.9,106.3z M208,103.6c-1.2,0.3-2.5,0.5-3.7,0.5c-1.9,0-3.6-0.2-4.9-0.5c-1.3-0.3-3.1-1.2-5.5-2.7
					l-0.4,0.2c0.2,0.3,0.3,0.7,0.4,1.1c0.1,0.5,0.2,0.9,0.2,1.3c0,0.7-0.3,1.3-0.8,1.7c-0.5,0.4-1.3,0.6-2.4,0.6
					c0.4-0.3,0.6-0.7,0.7-1.1c0.1-0.4,0.2-0.8,0.2-1.2c0-1.2-0.6-2.2-1.7-3c-1.1-0.8-2.8-1.3-4.9-1.5v-0.3c0.9-0.1,1.6-0.2,2.2-0.2
					c0.6,0,1.2-0.1,2.1-0.1c2.1,0,4.4,0.3,7,0.8c2.6,0.6,5,1.1,7.4,1.6c2.4,0.5,4.3,0.8,5.8,0.8c0.8,0,1.5-0.1,2.2-0.2
					C211.1,102.4,209.7,103.1,208,103.6z"/>
			</g>
			<g>
				<path class="st0" d="M80.1,97.6c-2,0.3-3.9,0.6-5.5,1c-0.8,0-1.3-0.1-1.6-0.2c-0.1,0-0.3-0.2-0.6-0.5l-0.3,0.2
					c0.4,1.1,1.4,1.9,3.3,2.4c1.1,0.3,2.6,0.4,4.4,0.4c-0.7,0.4-1.8,1-3,1.8c-0.4,0.3-1,0.6-1.8,1.1c-1.4-0.8-2.9-1.6-4.5-2.4
					c-2.1-1-3.8-1.7-5-2c-1.2-0.3-2.9-0.7-5.3-1c-2.3-0.3-4.2-0.5-5.7-0.5c-2,0-4.5,0.3-7.4,0.8c-0.2,0-2.5,0.5-6.9,1.5
					c-2.5,0.5-4.4,0.8-5.8,0.8c-1.1,0-2.1-0.1-2.9-0.4c-0.8-0.3-1.2-0.7-1.2-1.3c0-0.3,0.2-0.5,0.7-0.6c0.5-0.1,0.7-0.3,0.7-0.5
					c0-0.3,0-0.4-0.1-0.5c-0.1,0-0.3-0.1-0.5-0.1c-0.3,0-0.6,0.2-0.9,0.5c-0.3,0.3-0.4,0.8-0.4,1.2c0,1.4,1.3,2.7,3.8,3.8
					c2.3,1,4.5,1.5,6.7,1.5c3,0,5.6-0.6,7.6-1.9c0.3-0.2,0.9-0.7,1.8-1.3l0.1,0.1c-0.3,0.4-0.5,1.1-0.5,2c0,0.9,0.4,1.6,1.1,2.1
					c0.7,0.5,1.6,0.7,2.7,0.7c1,0,1.7-0.2,2.1-0.7l-0.2-0.2c0,0.1-0.1,0.1-0.2,0.2c-0.1,0-0.3,0-0.5,0c-1,0-1.5-0.7-1.5-2.1
					c0-1.5,1-2.6,3-3.4c1.5-0.6,3.3-0.9,5.4-0.9c1.5,0,3.5,0.5,5.9,1.4c2.2,0.8,4.6,2,7.3,3.4c-1.7,1.1-3.3,1.9-4.9,2.6
					c-1.6,0.6-2.9,1-4,1c-0.9,0-1.7-0.2-2.3-0.6c-0.6-0.4-1-0.8-1-1.3c0-0.6,0.4-1,1.1-1.1c0.7-0.1,1.1-0.3,1.1-0.6
					c0-0.2,0-0.4-0.1-0.6c-0.2-0.2-0.5-0.3-0.9-0.3c-0.6,0-1.1,0.3-1.5,0.8c-0.2,0.4-0.3,0.8-0.3,1.2c0,0.7,0.3,1.4,0.8,1.9
					c0.7,0.8,1.7,1.1,3,1.1c1.8,0,3.7-0.5,5.6-1.4c1.4-0.8,2.8-1.5,4.2-2.3c1.9,1,3.9,1.8,6,2.4c2.1,0.6,4.1,0.8,6.2,0.8
					c2.2,0,3.9-0.7,5.1-2c0.8-0.9,1.2-1.9,1.2-3c0-3.7-2.5-5.5-7.6-5.5C84,97.2,82.1,97.3,80.1,97.6z M58.7,99
					c-2.1,0.2-3.7,0.7-4.9,1.6c-1.1,0.8-1.7,1.8-1.7,3c0,0.4,0.1,0.7,0.2,1.1c0.1,0.4,0.4,0.8,0.7,1.1c-1.1,0-1.9-0.2-2.4-0.6
					c-0.5-0.4-0.7-1-0.7-1.7c0-0.5,0.1-0.9,0.2-1.4c0.1-0.5,0.2-0.8,0.3-1l-0.4-0.2c-2,1.2-3.4,2-4.3,2.3c-1.6,0.6-3.6,0.9-6.1,0.9
					c-1.2,0-2.4-0.2-3.8-0.5c-1.8-0.4-3.1-1.1-4-2c0.7,0.1,1.4,0.2,2.2,0.2c1.5,0,3.4-0.3,5.8-0.8c2.4-0.5,4.9-1.1,7.4-1.6
					c2.5-0.5,4.9-0.8,7.1-0.8c0.9,0,1.6,0,2.2,0.1c0.6,0,1.3,0.1,2.1,0.2V99z M90.9,98.9c1.3,0.8,1.9,2,1.9,3.5
					c0,1.4-0.5,2.6-1.5,3.4c-1,0.9-2.3,1.3-3.9,1.3c-2,0-4.1-0.3-6.2-0.8c-2.1-0.6-3.9-1.3-5.5-2.3c0.4-0.2,1.3-0.8,2.8-1.8
					c0.9-0.6,1.5-1,1.7-1.1c0,0.7,0.3,1.4,1,1.9c0.5,0.5,1.3,0.7,2.3,0.7c1.2,0,2.2-0.6,2.9-1.9v-0.4c-0.8,0-1.3-0.1-1.6-0.3
					c-0.3-0.2-0.4-0.4-0.4-0.7c0-0.7,0.3-1.3,1-1.8c0.7-0.5,1.4-0.7,2.1-0.7C88.7,97.9,89.9,98.3,90.9,98.9z M84.5,98.8
					c-0.5,0.5-0.8,1.1-0.8,1.7c0,1,0.6,1.5,1.9,1.5c-0.5,0.9-1.3,1.3-2.2,1.3c-0.8,0-1.4-0.2-1.9-0.5c-0.5-0.3-0.7-0.9-0.7-1.5
					c0-0.3,0.1-0.7,0.2-1.1c-0.3,0-0.7,0.1-1.2,0.1c-0.5,0-1,0.1-1.4,0.1c-0.9,0-1.8-0.1-2.7-0.3c-0.9-0.2-1.5-0.5-2-0.9
					c0.6,0,2.6-0.3,6-1c1.4-0.3,3.3-0.4,5.7-0.4h0.8C85.5,98,84.9,98.3,84.5,98.8z"/>
			</g>
			<g>
				<path class="st0" d="M216.2,96.3c0.4,0.3,0.9,0.4,1.5,0.4c1.7,0,3.5-0.2,5.3-0.7c1.3-0.4,2.1-0.6,2.4-0.6v-0.3
					c-1.1-0.3-2.3-0.6-3.5-0.9c-1.2-0.3-2.6-0.4-4.2-0.4c-0.6,0-1.1,0.1-1.5,0.3c-0.4,0.2-0.7,0.5-0.9,0.8h-62.8v0.6h62.8
					C215.4,95.8,215.7,96.1,216.2,96.3z M216,95.2c0.1-0.2,0.3-0.4,0.7-0.6c0.4-0.2,0.7-0.2,1-0.2c0.9,0,2,0.1,3.1,0.2
					c1.2,0.2,2.2,0.4,3.2,0.6c-1.1,0.3-2.1,0.5-3.3,0.7c-1.1,0.2-2.1,0.2-3.1,0.2c-0.3,0-0.7-0.1-1-0.2c-0.3-0.1-0.6-0.3-0.7-0.6
					V95.2z"/>
			</g>
		</g>
	</g>
	<path class="st0" d="M225.9,40.4c-1.5-1.8-4.4-3.2-6.8-3.2H24.9c-2.4,0-5.3,1.4-6.8,3.1L1.3,60.1c-1.8,2.1-1.8,5.4,0,7.4l16.8,19.7
		c1.5,1.8,4.5,3.1,6.8,3.1h194.2c2.4,0,5.3-1.4,6.8-3.1l16.8-19.7c1.8-2.1,1.8-5.4,0-7.4L225.9,40.4z M241.7,66.7l-16.8,19.7
		c-1.3,1.5-3.8,2.7-5.8,2.7H24.9c-2,0-4.5-1.2-5.8-2.7L2.3,66.7C1,65.1,1,62.6,2.3,61l16.8-19.8c1.3-1.5,3.8-2.7,5.8-2.7h194.2
		c2,0,4.5,1.2,5.8,2.7L241.7,61C243,62.6,243,65.1,241.7,66.7z"/>
	<path class="st0" d="M53.6,66.4h-6v5h6c1.4,0,2.1-1.2,2.1-2.5C55.7,67.6,55,66.4,53.6,66.4z"/>
	<path class="st0" d="M54.4,58.3c0-0.9-0.6-1.9-1.6-1.9h-5.1v3.8h5C53.9,60.2,54.4,59.2,54.4,58.3z"/>
	<path class="st0" d="M140.3,66.4h-6v5h6c1.4,0,2.1-1.2,2.1-2.5C142.4,67.6,141.7,66.4,140.3,66.4z"/>
	<path class="st0" d="M192.9,56.5H189v5.9h3.8c2,0,3-1.4,3-2.8C196,58.1,194.9,56.5,192.9,56.5z"/>
	<path class="st0" d="M141.1,58.3c0-0.9-0.6-1.9-1.6-1.9h-5.1v3.8h5C140.5,60.2,141.1,59.2,141.1,58.3z"/>
	<path class="st0" d="M110.5,56.5h-3.8v5.9h3.8c2,0,3-1.4,3-2.8C113.6,58.1,112.6,56.5,110.5,56.5z"/>
	<polygon class="st0" points="80.2,61 78.2,66.8 77.9,67.4 82.5,67.4 82.3,67 	"/>
	<path class="st0" d="M224.4,41.6c-1.1-1.4-3.5-2.5-5.3-2.5H24.9c-1.8,0-4.2,1.1-5.3,2.5L2.8,61.4c-1.2,1.4-1.2,3.6,0,4.9L19.6,86
		c1.1,1.4,3.5,2.5,5.3,2.5h194.2c1.8,0,4.2-1.1,5.3-2.5l16.8-19.7c1.2-1.4,1.2-3.6,0-4.9L224.4,41.6z M53.6,77.7H41.1V50.3h12.7
		c4.3,0,7.2,3.6,7.2,7.2c0,1.9-0.8,3.9-2.6,5.2c2.9,1.5,4.1,3.9,4.1,6.2C62.4,73.2,59.4,77.7,53.6,77.7z M86.4,77.7l-1.5-4h-9.3
		l-1.5,4h-7.1L77.8,50h4.8l11.4,27.6H86.4z M120.6,77.7h-7.1l-5.7-9.3h-1.1v9.3H100V50.1h10.6c6.3,0,9.5,4.7,9.4,9.3
		c-0.1,3.3-1.8,6.7-5.3,8.4l5.9,8.7V77.7z M140.3,77.7h-12.6V50.3h12.7c4.3,0,7.2,3.6,7.2,7.2c0,1.9-0.8,3.9-2.6,5.2
		c2.9,1.5,4.1,3.9,4.1,6.2C149,73.2,146,77.7,140.3,77.7z M174.8,77.7h-18V50.1h18v6.4h-11.3v3.8h11.1v6.5h-11.1v4.4h11.3V77.7z
		 M202.9,77.7h-7.1l-5.7-9.3H189v9.3h-6.6V50.1H193c6.3,0,9.5,4.7,9.4,9.3c-0.1,3.3-1.8,6.7-5.3,8.4l5.9,8.7V77.7z"/>
</g>
</svg>
